<svg width="25" height="24" viewBox="0 0 25 24" fill="none" xmlns="http://www.w3.org/2000/svg">
<g id="Icon">
<path id="Vector" d="M22.3055 10.0415H21.5V10H12.5V14H18.1515C17.327 16.3285 15.1115 18 12.5 18C9.1865 18 6.5 15.3135 6.5 12C6.5 8.6865 9.1865 6 12.5 6C14.0295 6 15.421 6.577 16.4805 7.5195L19.309 4.691C17.523 3.0265 15.134 2 12.5 2C6.9775 2 2.5 6.4775 2.5 12C2.5 17.5225 6.9775 22 12.5 22C18.0225 22 22.5 17.5225 22.5 12C22.5 11.3295 22.431 10.675 22.3055 10.0415Z" fill="#FFC107"/>
<path id="Vector_2" d="M3.65308 7.3455L6.93858 9.755C7.82758 7.554 9.98058 6 12.5001 6C14.0296 6 15.4211 6.577 16.4806 7.5195L19.3091 4.691C17.5231 3.0265 15.1341 2 12.5001 2C8.65908 2 5.32808 4.1685 3.65308 7.3455Z" fill="#FF3D00"/>
<path id="Vector_3" d="M12.4999 22.0001C15.0829 22.0001 17.4299 21.0116 19.2044 19.4041L16.1094 16.7851C15.0717 17.5743 13.8036 18.0011 12.4999 18.0001C9.89891 18.0001 7.69041 16.3416 6.85841 14.0271L3.59741 16.5396C5.25241 19.7781 8.61341 22.0001 12.4999 22.0001Z" fill="#4CAF50"/>
<path id="Vector_4" d="M22.3055 10.0415H21.5V10H12.5V14H18.1515C17.7571 15.1082 17.0467 16.0766 16.108 16.7855L16.1095 16.7845L19.2045 19.4035C18.9855 19.6025 22.5 17 22.5 12C22.5 11.3295 22.431 10.675 22.3055 10.0415Z" fill="#1976D2"/>
</g>
</svg>
